<svg width="22" height="22" viewBox="0 0 22 22" fill="none" xmlns="http://www.w3.org/2000/svg">
<path d="M2.93333 1.46655C2.93333 1.46655 1.46666 1.46655 1.46666 2.93322V10.4983C1.46666 13.0356 1.98586 16.1332 6.59999 16.1332H7.33333V11.7332L3.66666 13.1999C3.66666 13.1999 3.66666 9.53322 7.33333 9.53322V7.33322C7.33333 6.29482 7.46093 5.39722 8.06666 4.72989C8.62546 4.11389 9.54066 2.88482 11.9621 4.03909L13.2 4.84429V2.93322C13.2 2.93322 13.2 1.46655 11.7333 1.46655C10.6949 1.46655 8.83226 2.93322 7.33333 2.93322C5.83439 2.93322 4.08759 1.46655 2.93333 1.46655ZM4.39999 4.39989C4.78898 4.39989 5.16203 4.55441 5.43708 4.82946C5.71214 5.10452 5.86666 5.47757 5.86666 5.86655C5.86666 6.25554 5.71214 6.62859 5.43708 6.90364C5.16203 7.1787 4.78898 7.33322 4.39999 7.33322C4.01101 7.33322 3.63796 7.1787 3.3629 6.90364C3.08785 6.62859 2.93333 6.25554 2.93333 5.86655C2.93333 5.47757 3.08785 5.10452 3.3629 4.82946C3.63796 4.55441 4.01101 4.39989 4.39999 4.39989V4.39989ZM10.2667 5.86655C10.2667 5.86655 8.79999 5.86655 8.79999 7.33322V14.6666C8.79999 17.5999 10.2667 20.5332 14.6667 20.5332C19.0667 20.5332 20.5333 17.5999 20.5333 14.6666V7.33322C20.5333 5.86655 19.0667 5.86655 19.0667 5.86655C18.0283 5.86655 16.1656 7.33322 14.6667 7.33322C13.1677 7.33322 11.4209 5.86655 10.2667 5.86655ZM11.7333 8.79989C12.1223 8.79989 12.4954 8.95441 12.7704 9.22946C13.0455 9.50452 13.2 9.87757 13.2 10.2666C13.2 10.6555 13.0455 11.0286 12.7704 11.3036C12.4954 11.5787 12.1223 11.7332 11.7333 11.7332C11.3443 11.7332 10.9713 11.5787 10.6962 11.3036C10.4212 11.0286 10.2667 10.6555 10.2667 10.2666C10.2667 9.87757 10.4212 9.50452 10.6962 9.22946C10.9713 8.95441 11.3443 8.79989 11.7333 8.79989V8.79989ZM17.6 8.79989C17.989 8.79989 18.362 8.95441 18.6371 9.22946C18.9121 9.50452 19.0667 9.87757 19.0667 10.2666C19.0667 10.6555 18.9121 11.0286 18.6371 11.3036C18.362 11.5787 17.989 11.7332 17.6 11.7332C17.211 11.7332 16.838 11.5787 16.5629 11.3036C16.2879 11.0286 16.1333 10.6555 16.1333 10.2666C16.1333 9.87757 16.2879 9.50452 16.5629 9.22946C16.838 8.95441 17.211 8.79989 17.6 8.79989V8.79989ZM11 14.6666H18.3333C18.3333 14.6666 18.3333 18.3332 14.6667 18.3332C11 18.3332 11 14.6666 11 14.6666Z" fill="white"/>
</svg>
